<?xml version="1.0" standalone="no"?>
<!DOCTYPE svg PUBLIC "-//W3C//DTD SVG 20010904//EN"
 "http://www.w3.org/TR/2001/REC-SVG-20010904/DTD/svg10.dtd">
<svg version="1.0" xmlns="http://www.w3.org/2000/svg"
 width="640.000000pt" height="640.000000pt" viewBox="0 0 640.000000 640.000000"
 preserveAspectRatio="xMidYMid meet">
<metadata>
Created by potrace 1.14, written by Peter Selinger 2001-2017
</metadata>
<g transform="translate(0.000000,640.000000) scale(0.100000,-0.100000)"
fill="#000000" stroke="none">
<path d="M3500 4969 c-25 -4 -126 -23 -225 -40 -99 -17 -200 -35 -225 -40 -54
-10 -153 -27 -395 -69 -193 -33 -272 -47 -490 -86 -77 -13 -190 -33 -251 -43
-128 -22 -170 -41 -249 -113 -145 -133 -204 -265 -220 -496 -8 -120 1 -149
109 -342 32 -58 72 -130 89 -160 16 -30 47 -84 67 -120 20 -36 50 -90 67 -120
76 -141 126 -220 138 -220 8 0 24 4 37 9 13 5 66 21 118 36 132 38 200 88 236
174 24 57 17 97 -30 185 -75 140 -109 200 -133 238 -13 21 -23 40 -23 42 0 3
-91 167 -190 341 -86 151 -94 170 -94 225 -1 70 22 117 81 169 50 45 104 65
288 107 60 14 147 34 193 45 45 10 121 28 170 39 48 12 155 37 237 56 83 20
186 44 230 54 223 52 317 74 390 92 44 12 97 23 118 25 20 3 37 9 37 14 0 10
-17 10 -80 -2z"/>
<path d="M4660 4655 c0 -10 43 -81 133 -217 74 -113 365 -566 508 -790 13 -21
61 -94 105 -162 45 -68 83 -127 85 -132 2 -5 34 -55 71 -111 73 -112 102 -180
92 -221 -18 -74 -75 -143 -150 -180 -42 -22 -180 -63 -644 -196 -30 -9 -163
-47 -295 -85 -292 -85 -450 -130 -490 -141 -16 -4 -165 -47 -330 -95 -165 -48
-329 -96 -365 -106 -36 -10 -162 -45 -280 -79 -118 -34 -231 -66 -250 -71 -19
-6 -48 -14 -65 -18 -16 -5 -127 -37 -245 -71 -118 -34 -240 -68 -270 -76 -30
-8 -93 -27 -140 -42 -71 -22 -104 -27 -195 -27 -156 0 -235 29 -306 114 -19
22 -121 196 -228 386 -161 287 -194 353 -194 386 0 22 -3 42 -7 44 -8 5 -326
-462 -380 -559 -24 -42 -31 -67 -31 -110 -1 -31 3 -62 8 -69 6 -6 28 -46 50
-87 22 -41 49 -91 60 -110 11 -19 100 -177 197 -350 189 -338 223 -383 320
-429 97 -45 227 -62 311 -40 44 11 2088 685 2120 699 11 5 389 130 840 279
451 149 828 275 837 281 10 5 26 10 36 10 10 0 22 3 25 7 4 3 28 14 54 22 42
14 54 25 97 91 38 57 52 91 63 145 40 212 -10 579 -96 700 -32 45 -132 181
-181 245 -23 31 -163 222 -227 310 -26 36 -104 142 -173 235 -69 94 -155 210
-191 258 -236 324 -279 380 -279 362z"/>
</g>
</svg>
